<svg xmlns="http://www.w3.org/2000/svg" viewBox="0 0 501.28 347.46"><title>The Mess</title><path d="M94.87,43.24H64.48V0H179.61V43.24H149.22V164.79H94.87Z"/><path d="M183.32,0h52.62V56.08h29.4V0h52.87V164.79H265.34v-61h-29.4v61H183.32Z"/><path d="M325.62,0h97.1V43.24H378.25V61.52H422v41H378.25v19h46.2v43.24H325.62Z"/><path d="M0,178.47H43.48l43,63.25,42.74-63.25h43.48V343.26H120.07V284l-33.6,49.41L52.62,284v59.29H0Z"/><path d="M180.11,178.47H277.2v43.24H232.73V240h43.73v41H232.73v19h46.2v43.24H180.11Z"/><path d="M286.83,292.12a82.42,82.42,0,0,0,11.37,2.72,89.84,89.84,0,0,0,11.24,2,107.51,107.51,0,0,0,12.72.74q11.37,0,11.37-8.4c0-2.13-1.16-4.32-3.46-6.54a104,104,0,0,0-8.77-7.42q-5.32-4.06-11.37-9a82.47,82.47,0,0,1-11.36-11.37,59,59,0,0,1-8.77-14.45A46.08,46.08,0,0,1,286.34,222a47.49,47.49,0,0,1,4.2-20.5,41.32,41.32,0,0,1,11.61-14.83,52.26,52.26,0,0,1,17.42-9,72,72,0,0,1,21.37-3.09,115,115,0,0,1,11.86.62l10.62,1.11q5.43.74,10.63,1.48v46.2c-1.32-.16-2.81-.33-4.45-.49-1.32-.17-2.8-.33-4.45-.5s-3.38-.25-5.19-.25c-1,0-2.22.05-3.7.13a22,22,0,0,0-4.2.62,8.5,8.5,0,0,0-3.46,1.73,4.23,4.23,0,0,0-1.48,3.45q0,2,3.33,4.95t8.15,6.91q4.83,4,10.63,9.14a74.44,74.44,0,0,1,10.62,11.86A69.47,69.47,0,0,1,388,276.55a50.41,50.41,0,0,1,3.34,18.78,59.3,59.3,0,0,1-3.46,20.38,43.35,43.35,0,0,1-10.75,16.56,51.35,51.35,0,0,1-18.65,11.11q-11.37,4.08-26.93,4.08a165,165,0,0,1-17.42-.86q-8-.87-14.2-2.1a119.43,119.43,0,0,1-13.1-3Z"/><path d="M396.77,292.12a82.77,82.77,0,0,0,11.37,2.72,89.84,89.84,0,0,0,11.24,2,107.51,107.51,0,0,0,12.72.74q11.37,0,11.37-8.4c0-2.13-1.16-4.32-3.46-6.54a104,104,0,0,0-8.77-7.42q-5.31-4.06-11.37-9a82.47,82.47,0,0,1-11.36-11.37,59.26,59.26,0,0,1-8.77-14.45A46.08,46.08,0,0,1,396.28,222a47.49,47.49,0,0,1,4.2-20.5,41.32,41.32,0,0,1,11.61-14.83,52.26,52.26,0,0,1,17.42-9,72,72,0,0,1,21.37-3.09,114.9,114.9,0,0,1,11.86.62l10.62,1.11q5.43.74,10.63,1.48v46.2c-1.32-.16-2.81-.33-4.45-.49-1.32-.17-2.8-.33-4.45-.5s-3.38-.25-5.19-.25c-1,0-2.22.05-3.7.13a22.12,22.12,0,0,0-4.2.62,8.5,8.5,0,0,0-3.46,1.73,4.23,4.23,0,0,0-1.48,3.45q0,2,3.33,4.95t8.15,6.91q4.83,4,10.63,9.14a74,74,0,0,1,10.62,11.86A69.92,69.92,0,0,1,498,276.55a50.61,50.61,0,0,1,3.33,18.78,59.06,59.06,0,0,1-3.46,20.38,43.35,43.35,0,0,1-10.75,16.56,51.26,51.26,0,0,1-18.65,11.11q-11.37,4.08-26.93,4.08a165,165,0,0,1-17.42-.86q-8-.87-14.2-2.1a119.43,119.43,0,0,1-13.1-3Z"/></svg>
